<svg width="64" height="64" viewBox="0 0 64 64" fill="none" xmlns="http://www.w3.org/2000/svg">
<g filter="url(#filter0_b_2577_11115)">
<circle cx="32" cy="32" r="32" fill="#D9D9D9" fill-opacity="0.1"/>
<circle cx="32" cy="32" r="31.5" stroke="url(#paint0_linear_2577_11115)"/>
</g>
<g clip-path="url(#clip0_2577_11115)">
<path d="M39.4953 33.4895C36.1783 33.4895 33.4893 36.1785 33.4893 39.4955C33.4893 42.8126 36.1783 45.5016 39.4953 45.5016C42.8123 45.5016 45.5013 42.8125 45.5013 39.4955C45.5013 36.1785 42.8123 33.4895 39.4953 33.4895ZM39.1349 42.7388C38.6679 43.1966 37.9203 43.1966 37.4532 42.7388L35.0508 40.3363L36.7325 38.6546L38.294 40.2162L42.258 36.2522L43.9397 37.9339L39.1349 42.7388Z" fill="white"/>
<path d="M32.2884 39.4955C32.2884 35.5151 35.5152 32.2883 39.4956 32.2883H40.6968V19.0751C40.6968 18.4117 40.159 17.8739 39.4956 17.8739H20.2764C19.613 17.8739 19.0752 18.4117 19.0752 19.0751V45.5015C19.0752 46.1649 19.613 46.7027 20.2764 46.7027H39.4956C35.5152 46.7027 32.2884 43.476 32.2884 39.4955ZM27.4836 22.6787H35.892V25.0811H27.4836V22.6787ZM27.4836 28.6847H33.4897V31.0871H27.4836V28.6847ZM23.88 37.0931C23.2166 37.0931 22.6789 36.5553 22.6789 35.8919C22.6789 35.2285 23.2166 34.6907 23.88 34.6907C24.5434 34.6907 25.0812 35.2285 25.0812 35.8919C25.0812 36.5553 24.5434 37.0931 23.88 37.0931ZM23.88 31.0871C23.2166 31.0871 22.6789 30.5494 22.6789 29.886C22.6789 29.2225 23.2166 28.6848 23.88 28.6848C24.5434 28.6848 25.0812 29.2225 25.0812 29.886C25.0812 30.5493 24.5434 31.0871 23.88 31.0871ZM23.88 25.0811C23.2166 25.0811 22.6789 24.5433 22.6789 23.8799C22.6789 23.2165 23.2166 22.6787 23.88 22.6787C24.5434 22.6787 25.0812 23.2165 25.0812 23.8799C25.0812 24.5433 24.5434 25.0811 23.88 25.0811ZM31.0872 37.0931H27.4836V34.6907H31.0872V37.0931Z" fill="white"/>
</g>
<defs>
<filter id="filter0_b_2577_11115" x="-60" y="-60" width="184" height="184" filterUnits="userSpaceOnUse" color-interpolation-filters="sRGB">
<feFlood flood-opacity="0" result="BackgroundImageFix"/>
<feGaussianBlur in="BackgroundImageFix" stdDeviation="30"/>
<feComposite in2="SourceAlpha" operator="in" result="effect1_backgroundBlur_2577_11115"/>
<feBlend mode="normal" in="SourceGraphic" in2="effect1_backgroundBlur_2577_11115" result="shape"/>
</filter>
<linearGradient id="paint0_linear_2577_11115" x1="32" y1="-7.56364" x2="32" y2="69.8182" gradientUnits="userSpaceOnUse">
<stop stop-color="white"/>
<stop offset="0.841667" stop-color="#FBFBFB" stop-opacity="0"/>
</linearGradient>
<clipPath id="clip0_2577_11115">
<rect width="28.8288" height="28.8288" fill="white" transform="translate(17.874 17.8739)"/>
</clipPath>
</defs>
</svg>
