<svg width="64" height="64" viewBox="0 0 64 64" fill="none" xmlns="http://www.w3.org/2000/svg">
<g filter="url(#filter0_b_2577_11157)">
<circle cx="32" cy="32" r="32" fill="#D9D9D9" fill-opacity="0.1"/>
<circle cx="32" cy="32" r="31.5" stroke="url(#paint0_linear_2577_11157)"/>
</g>
<g clip-path="url(#clip0_2577_11157)">
<path fill-rule="evenodd" clip-rule="evenodd" d="M23.5022 37.7914C26.1032 37.0117 28.1066 36.8488 31.8067 39.2836L36.4718 38.2675C37.7946 37.9831 38.063 38.9225 38.2771 39.6031L32.5448 42.5076C32.0879 42.8015 32.401 43.284 32.7653 43.1179L38.9161 40.0281L39.0791 39.4018L44.2618 35.772C45.444 34.9444 45.7252 35.8806 46 36.5133L40.3124 42.2711L34.2479 45.3929C33.4459 45.8083 32.647 45.9521 31.7524 45.8498L23.5022 44.9168V37.7914ZM18 37.7115H22.7897V46H18V37.7115Z" fill="white"/>
<path fill-rule="evenodd" clip-rule="evenodd" d="M34.6342 23.4958C35.235 21.7992 35.9858 20.4444 35.9763 20.3932C35.7718 19.4986 34.6502 18.6998 33.4552 19.1024C33.2507 18.4505 32.519 18.0639 31.7777 18C31.0364 18.0639 30.3047 18.4505 30.1002 19.1024C28.9084 18.6998 27.7868 19.4986 27.5823 20.3932C27.5695 20.4476 28.3684 21.8854 28.9787 23.6524C25.6524 25.0839 23.2783 28.8159 23.2783 33.1934C23.2783 34.6025 23.4732 35.7944 23.8183 36.7977C24.4414 36.6315 25.0741 36.4973 25.7195 36.4398C28.052 36.2353 30.065 37.1396 31.9758 38.357L36.2862 37.4207C37.1074 37.2418 37.9126 37.376 38.4781 38.0406C38.6123 38.1972 38.7178 38.3633 38.8009 38.5359L39.7083 37.9C40.3474 36.6986 40.7212 35.1521 40.7212 33.1934C40.7212 28.6466 38.1618 24.7995 34.6342 23.4958ZM32.0014 28.4804C34.3722 28.4804 36.2958 30.404 36.2958 32.7748C36.2958 35.1489 34.3722 37.0725 32.0014 37.0725C29.6273 37.0725 27.7037 35.1489 27.7037 32.7748C27.7037 30.404 29.6273 28.4804 32.0014 28.4804ZM32.3944 29.3368V30.0813C32.7522 30.1515 33.0302 30.3273 33.2315 30.5605C33.4776 30.8481 33.599 31.2188 33.6022 31.5926V31.698L32.8161 31.6629C32.8161 31.6373 32.8161 31.6182 32.8161 31.6022C32.8161 31.4041 32.7554 31.2156 32.634 31.0718C32.5158 30.9376 32.3337 30.8417 32.078 30.8321C32.0461 30.8289 32.0205 30.8289 32.0014 30.8289C31.7585 30.8321 31.57 30.9152 31.439 31.0398C31.3399 31.1325 31.2728 31.2539 31.2377 31.3785C31.2025 31.5031 31.2025 31.6309 31.2313 31.7428C31.2633 31.8578 31.3304 31.9601 31.4326 32.024V32.0208L32.1739 32.4298V32.433L32.9408 32.8388L32.9567 32.8483C33.2571 33.0241 33.4456 33.2957 33.5287 33.6024C33.5958 33.8516 33.5926 34.1264 33.5191 34.3853C33.4488 34.6441 33.3082 34.8869 33.1005 35.0818C32.9152 35.2608 32.6788 35.395 32.3944 35.4621V36.2161H31.6051V35.4716C31.2473 35.4013 30.9693 35.2256 30.7712 34.9924C30.5252 34.7048 30.4005 34.3341 30.3973 33.9603C30.3973 33.9187 30.3973 33.8836 30.4005 33.8516L31.1834 33.89V33.9507C31.1866 34.1488 31.2441 34.3373 31.3687 34.4811C31.4837 34.6153 31.6659 34.708 31.9215 34.7208C31.9534 34.724 31.979 34.724 31.9982 34.724C32.241 34.7208 32.4295 34.6377 32.5605 34.5131C32.6596 34.4204 32.7267 34.299 32.7618 34.1744C32.797 34.0498 32.8002 33.9219 32.7682 33.8101C32.7363 33.6951 32.6724 33.596 32.5701 33.5321L31.8001 33.1231L31.7937 33.1199L31.0524 32.7109L31.0428 32.7046C30.7424 32.5288 30.5539 32.2572 30.4708 31.9505C30.4037 31.7012 30.4069 31.4265 30.4804 31.1676C30.5539 30.9088 30.6913 30.666 30.899 30.4711C31.0843 30.2921 31.3208 30.1579 31.6051 30.0908V29.3368H32.3944Z" fill="white"/>
</g>
<defs>
<filter id="filter0_b_2577_11157" x="-60" y="-60" width="184" height="184" filterUnits="userSpaceOnUse" color-interpolation-filters="sRGB">
<feFlood flood-opacity="0" result="BackgroundImageFix"/>
<feGaussianBlur in="BackgroundImageFix" stdDeviation="30"/>
<feComposite in2="SourceAlpha" operator="in" result="effect1_backgroundBlur_2577_11157"/>
<feBlend mode="normal" in="SourceGraphic" in2="effect1_backgroundBlur_2577_11157" result="shape"/>
</filter>
<linearGradient id="paint0_linear_2577_11157" x1="32" y1="-7.56364" x2="32" y2="69.8182" gradientUnits="userSpaceOnUse">
<stop stop-color="white"/>
<stop offset="0.841667" stop-color="#FBFBFB" stop-opacity="0"/>
</linearGradient>
<clipPath id="clip0_2577_11157">
<rect width="28" height="28" fill="white" transform="translate(18 18)"/>
</clipPath>
</defs>
</svg>
