<svg width="54" height="70" viewBox="0 0 54 70" fill="none" xmlns="http://www.w3.org/2000/svg">
<path d="M37.9 70C36.2333 70 34.8333 69.4167 33.7 68.25C32.5667 67.0833 32 65.6333 32 63.9V16.9L34.1 17.4L14.8 41.3L14.3 40H48.2C49.8 40 51.1333 40.5333 52.2 41.6C53.2667 42.6667 53.8 44 53.8 45.6C53.8 47.1333 53.2667 48.4167 52.2 49.45C51.1333 50.4833 49.8 51 48.2 51H6C4.6 51 3.25 50.4333 1.95 49.3C0.65 48.1667 0 46.7667 0 45.1C0 43.6333 0.5 42.3 1.5 41.1L33.1 2.4C33.6333 1.66667 34.3333 1.08334 35.2 0.649999C36.0667 0.216666 37.0333 0 38.1 0C39.8333 0 41.25 0.583335 42.35 1.75C43.45 2.91667 44 4.36667 44 6.1V63.9C44 65.6333 43.4167 67.0833 42.25 68.25C41.0833 69.4167 39.6333 70 37.9 70Z" fill="url(#paint0_linear_2577_11165)"/>
<defs>
<linearGradient id="paint0_linear_2577_11165" x1="-0.923339" y1="-1.995e-05" x2="-0.923391" y2="72.4027" gradientUnits="userSpaceOnUse">
<stop stop-color="white"/>
<stop offset="1" stop-color="white" stop-opacity="0"/>
</linearGradient>
</defs>
</svg>
