<svg width="45" height="70" viewBox="0 0 45 70" fill="none" xmlns="http://www.w3.org/2000/svg">
<path d="M7.09859 55.1127C7.69014 55.1127 8.33098 55.2113 9.02113 55.4085C9.71127 55.6056 10.4836 56 11.338 56.5916C12.4554 57.446 13.7864 58.2019 15.331 58.8592C16.8756 59.5164 18.6667 59.8451 20.7042 59.8451C22.7418 59.8451 24.6643 59.3357 26.4718 58.3169C28.2793 57.2981 29.7746 55.8521 30.9577 53.9789C32.1408 52.1056 32.7324 49.8545 32.7324 47.2254C32.7324 44.7277 32.223 42.6573 31.2042 41.0141C30.1854 39.3709 28.838 38.1221 27.162 37.2676C25.4859 36.4131 23.6948 35.9859 21.7887 35.9859C20.3427 35.9859 19.1432 36.1174 18.1901 36.3803C17.2371 36.6432 16.3169 36.9225 15.4296 37.2183C14.5423 37.5141 13.507 37.662 12.3239 37.662C10.8122 37.662 9.64554 37.1362 8.82394 36.0845C8.00235 35.0329 7.59155 33.784 7.59155 32.338C7.59155 31.4178 7.7723 30.5962 8.1338 29.8732C8.4953 29.1502 9.03756 28.3615 9.76056 27.507L27.1127 8.57747L29.7746 10.8451H5.52113C3.94366 10.8451 2.62911 10.3193 1.57747 9.26761C0.525822 8.21597 0 6.90141 0 5.32394C0 3.81221 0.525822 2.54695 1.57747 1.52817C2.62911 0.509394 3.94366 4.17885e-06 5.52113 0H35.6901C37.7277 0 39.2559 0.558688 40.2746 1.67606C41.2934 2.79344 41.8028 4.20658 41.8028 5.91549C41.8028 6.76996 41.5892 7.59155 41.162 8.38028C40.7347 9.16902 40.1596 9.92489 39.4366 10.6479L21.9859 29.8732L19.3239 26.5211C20.0469 26.1925 21.0493 25.8967 22.331 25.6338C23.6127 25.3709 24.6808 25.2394 25.5352 25.2394C29.4131 25.2394 32.7817 26.2418 35.6408 28.2465C38.5 30.2512 40.7019 32.8474 42.2465 36.0352C43.7911 39.223 44.5634 42.6573 44.5634 46.338C44.5634 51.2019 43.4789 55.4085 41.3099 58.9577C39.1408 62.507 36.0845 65.2347 32.1408 67.1408C28.1972 69.047 23.5962 70 18.338 70C15.9061 70 13.507 69.7042 11.1408 69.1127C8.77465 68.5211 6.73709 67.7324 5.02817 66.7465C3.58216 65.9577 2.61268 65.0869 2.11972 64.1338C1.62676 63.1808 1.38028 62.277 1.38028 61.4225C1.38028 59.9108 1.92254 58.4812 3.00704 57.1338C4.09155 55.7864 5.4554 55.1127 7.09859 55.1127Z" fill="url(#paint0_linear_2577_11151)"/>
<defs>
<linearGradient id="paint0_linear_2577_11151" x1="-0.764816" y1="-1.995e-05" x2="-0.764879" y2="72.4027" gradientUnits="userSpaceOnUse">
<stop stop-color="white"/>
<stop offset="1" stop-color="white" stop-opacity="0"/>
</linearGradient>
</defs>
</svg>
