<svg width="30" height="74" viewBox="0 0 30 74" fill="none" xmlns="http://www.w3.org/2000/svg">
<path d="M23.0282 74C21.0563 74 19.4366 73.3833 18.169 72.15C16.9014 70.9167 16.2676 69.3838 16.2676 67.5514V14.2714L17.7465 16.5971L9.71831 21.46C8.66197 22.0943 7.53521 22.4114 6.33803 22.4114C4.50704 22.4114 2.99296 21.7243 1.79577 20.35C0.598592 18.9757 3.49793e-08 17.5133 0 15.9629C0 13.5667 1.09155 11.7343 3.27465 10.4657L19.2254 0.95143C20.4225 0.317143 21.9366 0 23.7676 0C25.5986 0 27.0951 0.616668 28.257 1.85001C29.419 3.08334 30 4.61619 30 6.44857V67.5514C30 69.3838 29.3486 70.9167 28.0458 72.15C26.743 73.3833 25.0704 74 23.0282 74Z" fill="url(#paint0_linear_2577_11123)"/>
<defs>
<linearGradient id="paint0_linear_2577_11123" x1="-2.38956" y1="1.48e-05" x2="-2.38948" y2="85.7885" gradientUnits="userSpaceOnUse">
<stop stop-color="white"/>
<stop offset="0.711051" stop-color="white" stop-opacity="0"/>
</linearGradient>
</defs>
</svg>
