<svg width="45" height="70" viewBox="0 0 45 70" fill="none" xmlns="http://www.w3.org/2000/svg">
<path d="M39.5098 59.1549C41.0784 59.1549 42.3856 59.6807 43.4314 60.7324C44.4771 61.784 45 63.0986 45 64.6761C45 66.1878 44.4771 67.453 43.4314 68.4718C42.3856 69.4906 41.0784 70 39.5098 70H6.17647C4.47712 70 3.13725 69.4742 2.15686 68.4225C1.17647 67.3709 0.686274 66.0235 0.686275 64.3803C0.686274 62.7371 1.27451 61.2911 2.45098 60.0423L23.8235 37.0704C26.1765 34.507 28.0719 31.8944 29.5098 29.2324C30.9477 26.5704 31.6667 24.0892 31.6667 21.7887C31.6667 19.7512 31.1765 17.9108 30.1961 16.2676C29.2157 14.6244 27.9412 13.3099 26.3725 12.3239C24.8039 11.338 23.1046 10.8451 21.2745 10.8451C19.3791 10.8451 17.451 11.4859 15.4902 12.7676C13.5294 14.0493 11.7974 15.7418 10.2941 17.8451C9.5098 18.8967 8.72549 19.554 7.94118 19.8169C7.15686 20.0798 6.43791 20.2113 5.78431 20.2113C4.34641 20.2113 3.02288 19.669 1.81373 18.5845C0.604575 17.5 -5.1943e-07 16.2347 0 14.7887C0 13.6714 0.375817 12.5869 1.12745 11.5352C1.87909 10.4836 2.81046 9.39906 3.92157 8.28169C6.40523 5.78404 9.28104 3.77934 12.549 2.26761C15.817 0.755871 18.9542 4.17885e-06 21.9608 0C26.4052 0 30.2288 0.920188 33.4314 2.76056C36.634 4.60094 39.1176 7.13145 40.8824 10.3521C42.6471 13.5728 43.5294 17.2207 43.5294 21.2958C43.5294 24.0563 43.0229 26.8662 42.0098 29.7253C40.9967 32.5845 39.6078 35.3615 37.8431 38.0563C36.0784 40.7512 34.0523 43.3474 31.7647 45.8451L18.5294 60.0423L17.451 59.1549H39.5098Z" fill="url(#paint0_linear_2577_11137)"/>
<defs>
<linearGradient id="paint0_linear_2577_11137" x1="-0.772311" y1="-1.995e-05" x2="-0.772358" y2="95" gradientUnits="userSpaceOnUse">
<stop stop-color="white"/>
<stop offset="0.726316" stop-color="white" stop-opacity="0"/>
</linearGradient>
</defs>
</svg>
